#!OML:ASF H:\Dans Jumps\Project 1\Capture day 1\Session 1\subject.ASF
:FULLY-SPECIFIED
:DEGREES
347
root 1.36878 17.2393 11.0188 0.0752307 2.90216 -1.847
lowerback -0.00397788 -0.61824 1.69696
upperback 0.782951 -0.852208 3.01684
thorax 0.825934 -0.425629 2.13548
lowerneck -10.4778 0.0254379 -2.06061
upperneck 22.4369 0.365492 0.366677
head 8.71702 0.0410028 0.510775
rclavicle 8.94531e-016 -1.11319e-014
rhumerus -25.6513 -12.2947 -80.6728
rradius 30.776
rwrist 33.6234
rhand -24.8478 -26.1317
rfingers 7.12502
rthumb 1.65861 -56.105
lclavicle 8.94531e-016 -1.11319e-014
lhumerus -24.2802 -15.3932 93.0451
lradius 32.5673
lwrist 19.4393
lhand -22.3646 -8.1777
lfingers 7.12502
lthumb 4.05674 21.7634
rfemur -19.8453 0.72608 19.5379
rtibia 33.3668
rfoot -13.9097 -2.96187
rtoes 12.4971
lfemur -16.4743 3.50886 -17.9458
ltibia 32.4385
lfoot -15.2407 9.10867
ltoes -22.2734
348
root 1.36055 17.272 11.0685 0.292756 3.21612 -1.96251
lowerback -0.0904255 -0.59533 1.71787
upperback 0.760355 -0.82391 3.00207
thorax 0.850034 -0.411143 2.10792
lowerneck -10.7055 -0.0447376 -2.11087
upperneck 22.156 0.264696 0.446296
head 8.6644 -0.000256 0.534969
rclavicle 7.60351e-015 -1.19271e-014
rhumerus -25.8334 -12.4456 -80.4584
rradius 30.3913
rwrist 33.9693
rhand -24.8649 -26.1023
rfingers 7.12502
rthumb 1.64205 -56.0757
lclavicle 7.60351e-015 -1.19271e-014
lhumerus -24.1941 -15.2294 92.8147
lradius 32.36
lwrist 19.2956
lhand -22.3567 -7.91869
lfingers 7.12502
lthumb 4.06434 22.0223
rfemur -19.4355 0.628387 19.6658
rtibia 32.5387
rfoot -13.6385 -3.0062
rtoes 13.0164
lfemur -16.184 3.41463 -17.7954
ltibia 31.669
lfoot -15.1532 8.69644
ltoes -22.1839
349
root 1.35209 17.3011 11.1178 0.479198 3.53161 -2.07467
lowerback -0.14218 -0.576477 1.73423
upperback 0.744521 -0.799989 2.98973
thorax 0.861843 -0.398918 2.08577
lowerneck -10.9298 -0.112321 -2.14576
upperneck 21.8645 0.169673 0.504299
head 8.60779 -0.0397336 0.54971
rclavicle -6.75868e-015 3.89618e-014
rhumerus -25.9784 -12.5848 -80.2599
rradius 29.9823
rwrist 34.3419
rhand -24.9151 -26.0802
rfingers 7.12502
rthumb 1.59355 -56.054
lclavicle -6.75868e-015 3.89618e-014
lhumerus -24.0916 -14.9982 92.5594
lradius 32.091
lwrist 18.9151
lhand -22.4428 -7.72512
lfingers 7.12502
lthumb 3.98122 22.2174
rfemur -19.0254 0.511751 19.7915
rtibia 31.7566
rfoot -13.3686 -3.04904
rtoes 13.4689
lfemur -15.9027 3.34408 -17.6455
ltibia 30.9662
lfoot -15.0737 8.25763
ltoes -22.0167
350
root 1.34363 17.3271 11.1667 0.641227 3.84427 -2.20875
lowerback -0.176442 -0.560109 1.77771
upperback 0.737241 -0.779256 2.98417
thorax 0.872455 -0.388127 2.05553
lowerneck -11.1406 -0.173104 -2.15345
upperneck 21.5499 0.0845644 0.535507
head 8.54097 -0.0750067 0.551714
rclavicle -1.7344e-014 -4.37326e-014
rhumerus -26.0757 -12.7421 -80.0726
rradius 29.5383
rwrist 34.7535
rhand -24.9889 -26.0456
rfingers 7.12502
rthumb 1.52229 -56.0199
lclavicle -1.7344e-014 -4.37326e-014
lhumerus -23.9657 -14.7182 92.2796
lradius 31.7646
lwrist 18.3967
lhand -22.6221 -7.64303
lfingers 7.12502
lthumb 3.80805 22.3027
rfemur -18.618 0.372199 19.9425
rtibia 31.0138
rfoot -13.1106 -3.07492
rtoes 13.8358
lfemur -15.6372 3.30675 -17.4688
ltibia 30.3314
lfoot -15.0041 7.79926
ltoes -21.7893
351
root 1.33538 17.3503 11.2162 0.788187 4.14676 -2.34608
lowerback -0.209591 -0.544222 1.83046
upperback 0.739693 -0.759585 2.98093
thorax 0.892397 -0.377792 2.02246
lowerneck -11.3446 -0.230894 -2.14976
upperneck 21.2153 0.00459163 0.55168
head 8.46632 -0.108482 0.547184
rclavicle 5.36719e-015 -6.36111e-015
rhumerus -26.1149 -12.9419 -79.8919
rradius 29.0446
rwrist 35.216
rhand -25.0364 -26.0279
rfingers 7.12502
rthumb 1.4764 -56.0025
lclavicle 5.36719e-015 -6.36111e-015
lhumerus -23.8194 -14.3654 91.9739
lradius 31.4002
lwrist 17.7997
lhand -22.8341 -7.62897
lfingers 7.12502
lthumb 3.60331 22.3203
rfemur -18.2149 0.200212 20.0984
rtibia 30.3085
rfoot -12.8777 -3.06625
rtoes 14.1672
lfemur -15.3871 3.3072 -17.2869
ltibia 29.7609
lfoot -14.9473 7.32384
ltoes -21.4934
352
root 1.32745 17.3714 11.2656 0.928108 4.43507 -2.49579
lowerback -0.24059 -0.526788 1.9043
upperback 0.743487 -0.738021 2.98049
thorax 0.912291 -0.366352 1.98051
lowerneck -11.5409 -0.287038 -2.14267
upperneck 20.8676 -0.0729607 0.563532
head 8.38601 -0.14105 0.540841
rclavicle -5.36719e-015 -2.38542e-015
rhumerus -26.1173 -13.1987 -79.7112
rradius 28.5166
rwrist 35.7377
rhand -25.0641 -26.0203
rfingers 7.12502
rthumb 1.44964 -55.9951
lclavicle -5.36719e-015 -2.38542e-015
lhumerus -23.6714 -13.9416 91.6485
lradius 31.0045
lwrist 17.19
lhand -23.0694 -7.70859
lfingers 7.12502
lthumb 3.37609 22.2444
rfemur -17.8255 -0.000998149 20.2687
rtibia 29.6372
rfoot -12.6728 -3.01879
rtoes 14.5041
lfemur -15.1622 3.34489 -17.09
ltibia 29.2515
lfoot -14.8897 6.83063
ltoes -21.1154
353
root 1.31965 17.3904 11.3151 1.07077 4.70346 -2.65068
lowerback -0.284018 -0.504514 1.99062
upperback 0.749243 -0.710721 2.97973
thorax 0.940966 -0.351907 1.9312
lowerneck -11.7223 -0.348361 -2.14733
upperneck 20.4976 -0.157374 0.583641
head 8.29583 -0.176971 0.538447
rclavicle -1.49585e-014 -7.95139e-016
rhumerus -26.0767 -13.5371 -79.5267
rradius 27.9465
rwrist 36.3418
rhand -25.0308 -26.0561
rfingers 7.12502
rthumb 1.48186 -56.0307
lclavicle -1.49585e-014 -7.95139e-016
lhumerus -23.5094 -13.4516 91.2992
lradius 30.5769
lwrist 16.607
lhand -23.2822 -7.81417
lfingers 7.12502
lthumb 3.17053 22.142
rfemur -17.4624 -0.2285 20.448
rtibia 29.0044
rfoot -12.5 -2.93787
rtoes 14.8056
lfemur -14.9677 3.42108 -16.8864
ltibia 28.792
lfoot -14.817 6.31523
ltoes -20.6396
354
root 1.31179 17.4078 11.3643 1.21842 4.9458 -2.81101
lowerback -0.332194 -0.474669 2.08844
upperback 0.754892 -0.673684 2.97667
thorax 0.971952 -0.33246 1.87318
lowerneck -11.9132 -0.415659 -2.16553
upperneck 20.1239 -0.250437 0.620577
head 8.20662 -0.216449 0.543016
rclavicle 1.70458e-014 7.15625e-015
rhumerus -25.9969 -13.9708 -79.3357
rradius 27.332
rwrist 37.0307
rhand -24.9777 -26.0973
rfingers 7.12502
rthumb 1.53309 -56.0715
lclavicle 1.70458e-014 7.15625e-015
lhumerus -23.3365 -12.9019 90.9285
lradius 30.1149
lwrist 16.0665
lhand -23.4863 -7.96284
lfingers 7.12502
lthumb 2.97344 21.9962
rfemur -17.1296 -0.474927 20.6392
rtibia 28.41
rfoot -12.3546 -2.8335
rtoes 15.0348
lfemur -14.8043 3.53196 -16.6753
ltibia 28.3756
lfoot -14.7165 5.78173
ltoes -20.0574
355
root 1.30387 17.4238 11.4129 1.37746 5.16586 -2.95154
lowerback -0.393235 -0.441141 2.17092
upperback 0.755267 -0.632005 2.96496
thorax 1.00486 -0.310749 1.81493
lowerneck -12.0962 -0.489197 -2.21043
upperneck 19.7479 -0.352312 0.685355
head 8.11576 -0.259463 0.560354
rclavicle -1.18525e-014 -4.77083e-015
rhumerus -25.8916 -14.5032 -79.1369
rradius 26.6882
rwrist 37.8128
rhand -24.9139 -26.1551
rfingers 7.12502
rthumb 1.59477 -56.1289
lclavicle -1.18525e-014 -4.77083e-015
lhumerus -23.1624 -12.2919 90.5382
lradius 29.6134
lwrist 15.5589
lhand -23.68 -8.09234
lfingers 7.12502
lthumb 2.78643 21.8692
rfemur -16.8354 -0.750881 20.8166
rtibia 27.8577
rfoot -12.2345 -2.71094
rtoes 15.1257
lfemur -14.6727 3.66138 -16.4867
ltibia 27.9923
lfoot -14.5783 5.24408
ltoes -19.4004
